HIERARCHY
ROOT hip
{
  OFFSET 0 0 0
  CHANNELS 6 Xposition Yposition Zposition Zrotation Yrotation Xrotation
  JOINT abdomen
  {
    OFFSET 0 20.6881 -0.73152
    CHANNELS 3 Zrotation Xrotation Yrotation
    JOINT chest
    {
      OFFSET 0 11.7043 -0.48768
      CHANNELS 3 Zrotation Xrotation Yrotation
      JOINT neck
      {
        OFFSET 0 22.1894 -2.19456
        CHANNELS 3 Zrotation Xrotation Yrotation
        JOINT head
        {
          OFFSET -0.24384 7.07133 1.2192
          CHANNELS 3 Zrotation Xrotation Yrotation
          JOINT leftEye
          {
            OFFSET 4.14528 8.04674 8.04672
            CHANNELS 3 Zrotation Xrotation Yrotation
            End Site
            {
              OFFSET 1 0 0
            }
          }
          JOINT rightEye
          {
            OFFSET -3.6576 8.04674 8.04672
            CHANNELS 3 Zrotation Xrotation Yrotation
            End Site
            {
              OFFSET 1 0 0
            }
          }
        }
      }
      JOINT rCollar
      {
        OFFSET -2.68224 19.2634 -4.8768
        CHANNELS 3 Zrotation Xrotation Yrotation
        JOINT rShldr
        {
          OFFSET -8.77824 -1.95073 1.46304
          CHANNELS 3 Zrotation Xrotation Yrotation
          JOINT rForeArm
          {
            OFFSET -28.1742 -1.7115 0.48768
            CHANNELS 3 Zrotation Xrotation Yrotation
            JOINT rHand
            {
              OFFSET -22.5879 0.773209 7.07136
              CHANNELS 3 Zrotation Xrotation Yrotation
              JOINT rThumb1
              {
                OFFSET -1.2192 -0.487915 3.41376
                CHANNELS 3 Zrotation Xrotation Yrotation
                JOINT rThumb2
                {
                  OFFSET -3.37035 -0.52449 3.41376
                  CHANNELS 3 Zrotation Xrotation Yrotation
                  End Site
                  {
                    OFFSET -1.78271 -1.18214 1.43049
                  }
                }
              }
              JOINT rIndex1
              {
                OFFSET -7.75947 0.938293 5.60832
                CHANNELS 3 Zrotation Xrotation Yrotation
                JOINT rIndex2
                {
                  OFFSET -2.54057 -0.884171 1.56538
                  CHANNELS 3 Zrotation Xrotation Yrotation
                  End Site
                  {
                    OFFSET -1.62519 -0.234802 1.16502
                  }
                }
              }
              JOINT rMid1
              {
                OFFSET -8.24714 1.18213 3.41376
                CHANNELS 3 Zrotation Xrotation Yrotation
                JOINT rMid2
                {
                  OFFSET -3.10165 -0.590103 1.0647
                  CHANNELS 3 Zrotation Xrotation Yrotation
                  End Site
                  {
                    OFFSET -2.48547 -0.328903 0.83742
                  }
                }
              }
              JOINT rRing1
              {
                OFFSET -8.82822 0.546677 1.51678
                CHANNELS 3 Zrotation Xrotation Yrotation
                JOINT rRing2
                {
                  OFFSET -2.60934 -0.819778 -0.0198488
                  CHANNELS 3 Zrotation Xrotation Yrotation
                  End Site
                  {
                    OFFSET -2.33842 -0.294052 0.168128
                  }
                }
              }
              JOINT rPinky1
              {
                OFFSET -8.27202 -0.0477905 -0.4584
                CHANNELS 3 Zrotation Xrotation Yrotation
                JOINT rPinky2
                {
                  OFFSET -1.82734 -0.647385 -0.700984
                  CHANNELS 3 Zrotation Xrotation Yrotation
                  End Site
                  {
                    OFFSET -1.69225 -0.51767 -0.607171
                  }
                }
              }
            }
          }
        }
      }
      JOINT lCollar
      {
        OFFSET 2.68224 19.2634 -4.8768
        CHANNELS 3 Zrotation Xrotation Yrotation
        JOINT lShldr
        {
          OFFSET 8.77824 -1.95073 1.46304
          CHANNELS 3 Zrotation Xrotation Yrotation
          JOINT lForeArm
          {
            OFFSET 28.1742 -1.7115 0.48768
            CHANNELS 3 Zrotation Xrotation Yrotation
            JOINT lHand
            {
              OFFSET 22.5879 0.773209 7.07136
              CHANNELS 3 Zrotation Xrotation Yrotation
              JOINT lThumb1
              {
                OFFSET 1.2192 -0.487915 3.41376
                CHANNELS 3 Zrotation Xrotation Yrotation
                JOINT lThumb2
                {
                  OFFSET 3.37035 -0.52449 3.41376
                  CHANNELS 3 Zrotation Xrotation Yrotation
                  End Site
                  {
                    OFFSET 1.78271 -1.18214 1.43049
                  }
                }
              }
              JOINT lIndex1
              {
                OFFSET 7.75947 0.938293 5.60832
                CHANNELS 3 Zrotation Xrotation Yrotation
                JOINT lIndex2
                {
                  OFFSET 2.54057 -0.884171 1.56538
                  CHANNELS 3 Zrotation Xrotation Yrotation
                  End Site
                  {
                    OFFSET 1.62519 -0.234802 1.16502
                  }
                }
              }
              JOINT lMid1
              {
                OFFSET 8.24714 1.18213 3.41376
                CHANNELS 3 Zrotation Xrotation Yrotation
                JOINT lMid2
                {
                  OFFSET 3.10165 -0.590103 1.0647
                  CHANNELS 3 Zrotation Xrotation Yrotation
                  End Site
                  {
                    OFFSET 2.48547 -0.328903 0.83742
                  }
                }
              }
              JOINT lRing1
              {
                OFFSET 8.82822 0.546677 1.51678
                CHANNELS 3 Zrotation Xrotation Yrotation
                JOINT lRing2
                {
                  OFFSET 2.60934 -0.819778 -0.0198488
                  CHANNELS 3 Zrotation Xrotation Yrotation
                  End Site
                  {
                    OFFSET 2.33842 -0.294052 0.168128
                  }
                }
              }
              JOINT lPinky1
              {
                OFFSET 8.27202 -0.0477905 -0.4584
                CHANNELS 3 Zrotation Xrotation Yrotation
                JOINT lPinky2
                {
                  OFFSET 1.82734 -0.647385 -0.700984
                  CHANNELS 3 Zrotation Xrotation Yrotation
                  End Site
                  {
                    OFFSET 1.69225 -0.51767 -0.607171
                  }
                }
              }
            }
          }
        }
      }
    }
  }
  JOINT rButtock
  {
    OFFSET -8.77824 4.35084 1.2192
    CHANNELS 3 Zrotation Xrotation Yrotation
    JOINT rThigh
    {
      OFFSET 0 -1.70687 -2.19456
      CHANNELS 3 Zrotation Xrotation Yrotation
      JOINT rShin
      {
        OFFSET 0 -36.8199 0.73152
        CHANNELS 3 Zrotation Xrotation Yrotation
        JOINT rFoot
        {
          OFFSET 0.73152 -45.1104 -5.12064
          CHANNELS 3 Zrotation Xrotation Yrotation
          End Site
          {
            OFFSET -1.1221 -3.69964 12.103
          }
        }
      }
    }
  }
  JOINT lButtock
  {
    OFFSET 8.77824 4.35084 1.2192
    CHANNELS 3 Zrotation Xrotation Yrotation
    JOINT lThigh
    {
      OFFSET 0 -1.70687 -2.19456
      CHANNELS 3 Zrotation Xrotation Yrotation
      JOINT lShin
      {
        OFFSET 0 -36.8199 0.73152
        CHANNELS 3 Zrotation Xrotation Yrotation
        JOINT lFoot
        {
          OFFSET -0.73152 -45.1104 -5.12064
          CHANNELS 3 Zrotation Xrotation Yrotation
          End Site
          {
            OFFSET 1.1221 -3.69964 12.103
          }
        }
      }
    }
  }
}
MOTION
Frames:	9
Frame Time:	0.00833333
71.079 73.1136 -65.1888 -14.8448 62.7912 -18.2648 2.25041 25.7649 2.27115 2.12169 -2.21834 1.03456 -9.2934 17.4087 -22.2654 31.1807 -34.0782 -36.0598 -0.0 0.0 0.0 -0.0 0.0 0.0 1.797e-13 -6.1623e-14 -3.46531e-13 40.2465 -62.7025 25.1045 -6.38587 -2.21855 11.1774 -1.07458 28.066 4.29746 4.98771e-10 -1.78592e-08 -7.86163e-09 6.72965e-10 -2.9297e-08 -1.3583e-08 4.98777e-10 -1.78591e-08 -7.86164e-09 7.73091 5.47488 0.417314 4.98769e-10 -1.78592e-08 -7.86163e-09 2.90554 0.965183 0.102902 4.98782e-10 -1.78592e-08 -7.86162e-09 10.2786 0.731801 0.0259123 4.9877e-10 -1.78591e-08 -7.86161e-09 2.22167 -0.733487 -0.20892 1.79664e-13 -6.1623e-14 -3.4683e-13 -52.224 32.9421 1.87824 26.7258 -25.4619 -60.0214 0.034683 -5.30818 0.748179 1.66566e-09 1.73906e-09 -1.11942e-09 2.88861e-09 3.00813e-09 -1.92898e-09 1.66566e-09 1.73906e-09 -1.11942e-09 -7.73091 5.47488 -0.417314 1.66567e-09 1.73906e-09 -1.11943e-09 -2.90554 0.965183 -0.102902 1.66566e-09 1.73906e-09 -1.11942e-09 -10.2786 0.731801 -0.0259123 1.66567e-09 1.73906e-09 -1.11943e-09 -2.22167 -0.733487 0.20892 -2.03217e-16 0.0 -3.88251e-19 -22.6699 -29.3134 -6.19568 -0.542398 49.1513 1.03875 -4.65115 -5.89887 -21.1155 2.03217e-16 0.0 3.88251e-19 4.54639 -39.697 7.80271 1.51851 65.9239 -2.07134 0.00684649 -19.2296 -0.3746
71.1437 73.0151 -64.6291 -14.7678 62.3874 -18.0814 2.06483 25.3103 2.63602 2.06834 -2.05747 1.11678 -9.4453 17.2011 -22.2554 31.2789 -33.0718 -36.1714 -0.0 0.0 0.0 -0.0 0.0 0.0 2.19759e-13 -1.29808e-13 -5.03255e-13 41.0481 -63.3443 25.6528 -6.32996 -2.19297 11.0769 -1.17276 29.1445 4.49637 5.32691e-10 -1.99291e-08 -9.07042e-09 6.96842e-10 -3.25809e-08 -1.56662e-08 5.32697e-10 -1.99291e-08 -9.07042e-09 7.73091 5.47488 0.417314 5.32688e-10 -1.99291e-08 -9.07041e-09 2.90554 0.965183 0.102902 5.32701e-10 -1.99291e-08 -9.07041e-09 10.2786 0.731801 0.0259123 5.32689e-10 -1.99291e-08 -9.0704e-09 2.22167 -0.733487 -0.20892 2.19716e-13 -1.29807e-13 -5.03565e-13 -51.9761 31.7251 2.58017 26.5396 -24.9045 -59.0861 0.0307925 -5.02713 0.708328 1.96828e-09 1.8304e-09 -4.89553e-10 3.4108e-09 3.16787e-09 -8.43722e-10 1.96828e-09 1.8304e-09 -4.8955e-10 -7.73091 5.47488 -0.417314 1.96828e-09 1.8304e-09 -4.89564e-10 -2.90554 0.965183 -0.102902 1.96828e-09 1.8304e-09 -4.89556e-10 -10.2786 0.731801 -0.0259123 1.96828e-09 1.8304e-09 -4.89565e-10 -2.22167 -0.733487 0.20892 -2.03217e-16 0.0 -3.88251e-19 -21.6049 -28.36 -4.43058 -0.456154 46.4917 0.915096 -3.94789 -4.08846 -21.4485 2.03217e-16 0.0 3.88251e-19 4.99577 -39.5163 7.91782 1.5518 66.2337 -2.0999 0.0540777 -19.6632 -0.261762
71.2983 72.9717 -64.0766 -14.0479 61.9899 -17.4338 1.79366 24.7334 3.01192 2.04113 -1.80194 1.19512 -9.65376 16.8811 -22.2353 31.3736 -31.8845 -36.2978 -0.0 0.0 0.0 -0.0 0.0 0.0 2.6121e-13 -1.72832e-13 -7.30804e-13 41.9134 -63.9036 26.3144 -6.25826 -2.16021 10.9483 -1.24906 29.9751 4.65116 4.48496e-10 -2.10785e-08 -1.02911e-08 5.14826e-10 -3.42534e-08 -1.77655e-08 4.48503e-10 -2.10785e-08 -1.02911e-08 7.73091 5.47488 0.417314 4.48493e-10 -2.10785e-08 -1.02911e-08 2.90554 0.965183 0.102902 4.48506e-10 -2.10785e-08 -1.02911e-08 10.2786 0.731801 0.0259123 4.48494e-10 -2.10785e-08 -1.02911e-08 2.22167 -0.733487 -0.20892 2.61157e-13 -1.72829e-13 -7.31114e-13 -51.6408 30.3862 3.18304 26.309 -24.2523 -58.0261 0.0261335 -4.65042 0.654988 2.40105e-09 1.95663e-09 3.14102e-10 4.15793e-09 3.38895e-09 5.40003e-10 2.40105e-09 1.95663e-09 3.14105e-10 -7.73091 5.47488 -0.417314 2.40105e-09 1.95663e-09 3.14092e-10 -2.90554 0.965183 -0.102902 2.40104e-09 1.95663e-09 3.141e-10 -10.2786 0.731801 -0.0259123 2.40105e-09 1.95663e-09 3.14094e-10 -2.22167 -0.733487 0.20892 -2.03217e-16 0.0 -3.88251e-19 -20.5291 -27.3072 -2.14639 -0.374283 43.3574 0.776362 -2.60255 -1.11453 -20.6904 2.03217e-16 0.0 3.88251e-19 5.40894 -39.3543 8.00844 1.58522 66.5375 -2.12995 0.15098 -20.124 -0.0346573
71.4066 72.9833 -63.4773 -13.7332 61.6645 -17.144 1.52032 24.1774 3.34681 2.00296 -1.5673 1.26209 -9.8761 16.5701 -22.1927 31.4932 -30.7239 -36.3813 -0.0 0.0 0.0 -0.0 0.0 0.0 2.84373e-13 -1.94243e-13 -9.15715e-13 42.9776 -64.4262 27.2126 -6.17841 -2.12388 10.8052 -1.31563 30.6951 4.78646 3.255e-10 -2.07556e-08 -1.08298e-08 2.84294e-10 -3.35375e-08 -1.86876e-08 3.25508e-10 -2.07556e-08 -1.08298e-08 7.73091 5.47488 0.417314 3.25498e-10 -2.07556e-08 -1.08298e-08 2.90554 0.965183 0.102902 3.25509e-10 -2.07556e-08 -1.08298e-08 10.2786 0.731801 0.0259123 3.25497e-10 -2.07556e-08 -1.08298e-08 2.22167 -0.733487 -0.20892 2.84312e-13 -1.94241e-13 -9.1602e-13 -51.3536 28.9553 3.82708 26.0515 -23.5661 -56.9439 0.0222168 -4.28025 0.602657 2.6235e-09 1.95985e-09 1.13303e-09 4.54085e-09 3.39706e-09 1.95044e-09 2.6235e-09 1.95985e-09 1.13304e-09 -7.73091 5.47488 -0.417314 2.6235e-09 1.95985e-09 1.13302e-09 -2.90554 0.965183 -0.102902 2.6235e-09 1.95985e-09 1.13303e-09 -10.2786 0.731801 -0.0259123 2.62351e-09 1.95985e-09 1.13303e-09 -2.22167 -0.733487 0.20892 -2.03217e-16 0.0 -3.88251e-19 -19.626 -26.3662 0.0171621 -0.318052 40.5409 0.662106 -1.3155 1.89018 -19.6017 2.03217e-16 0.0 3.88251e-19 5.7632 -39.2229 8.0304 1.62038 66.8608 -2.16537 0.317102 -20.574 0.338756
71.4713 72.9762 -62.8448 -13.4913 61.2675 -16.9023 1.32252 23.7858 3.59074 1.91741 -1.46912 1.31016 -10.0697 16.3898 -22.1145 31.6602 -29.7925 -36.3563 -0.0 0.0 0.0 -0.0 0.0 0.0 2.69569e-13 -1.97592e-13 -9.44525e-13 44.3911 -64.953 28.4852 -6.09811 -2.08764 10.6614 -1.38829 31.4416 4.92931 2.43015e-10 -1.84091e-08 -9.99261e-09 1.62621e-10 -2.96559e-08 -1.72392e-08 2.43021e-10 -1.84091e-08 -9.9926e-09 7.73091 5.47488 0.417314 2.43012e-10 -1.84091e-08 -9.99261e-09 2.90554 0.965183 0.102902 2.43022e-10 -1.84091e-08 -9.99261e-09 10.2786 0.731801 0.0259123 2.4301e-10 -1.84091e-08 -9.99261e-09 2.22167 -0.733487 -0.20892 2.69503e-13 -1.97592e-13 -9.44824e-13 -51.2358 27.4605 4.64574 25.7954 -22.9208 -55.9337 0.0198497 -4.01884 0.565748 2.29518e-09 1.68217e-09 1.80872e-09 3.97041e-09 2.91787e-09 3.11583e-09 2.29517e-09 1.68216e-09 1.80873e-09 -7.73091 5.47488 -0.417314 2.29518e-09 1.68217e-09 1.80872e-09 -2.90554 0.965183 -0.102902 2.29517e-09 1.68217e-09 1.80873e-09 -10.2786 0.731801 -0.0259123 2.29518e-09 1.68217e-09 1.80872e-09 -2.22167 -0.733487 0.20892 -2.03217e-16 0.0 -3.88251e-19 -18.9973 -25.7858 1.4573 -0.29174 38.8349 0.598723 -0.591126 3.71756 -18.8522 2.03217e-16 0.0 3.88251e-19 6.03621 -39.1344 7.93967 1.65929 67.229 -2.21044 0.57202 -20.9749 0.890573
71.4894 72.8467 -62.246 -13.0582 60.833 -16.4906 1.20853 23.5832 3.69482 1.76818 -1.59585 1.32587 -10.2294 16.4373 -21.9736 31.9278 -29.1438 -36.1445 -0.0 0.0 0.0 -0.0 0.0 0.0 1.91154e-13 -1.85878e-13 -7.16028e-13 46.1588 -65.3954 30.1128 -6.01831 -2.05193 10.5186 -1.46354 32.1554 5.06977 2.22577e-10 -1.23897e-08 -6.74182e-09 2.16207e-10 -2.00079e-08 -1.16318e-08 2.22583e-10 -1.23897e-08 -6.74181e-09 7.73091 5.47488 0.417314 2.22575e-10 -1.23897e-08 -6.74182e-09 2.90554 0.965183 0.102902 2.22585e-10 -1.23897e-08 -6.74182e-09 10.2786 0.731801 0.0259123 2.22573e-10 -1.23897e-08 -6.74181e-09 2.22167 -0.733487 -0.20892 1.91093e-13 -1.85883e-13 -7.16313e-13 -51.3259 25.9398 5.78303 25.5645 -22.3634 -55.0658 0.0189228 -3.90785 0.550087 9.53449e-10 8.72731e-10 2.39958e-09 1.64542e-09 1.51668e-09 4.13845e-09 9.53444e-10 8.72726e-10 2.39959e-09 -7.73091 5.47488 -0.417314 9.53448e-10 8.7273e-10 2.39958e-09 -2.90554 0.965183 -0.102902 9.53439e-10 8.72731e-10 2.39959e-09 -10.2786 0.731801 -0.0259123 9.53451e-10 8.72734e-10 2.39959e-09 -2.22167 -0.733487 0.20892 -2.03217e-16 0.0 -3.88251e-19 -18.6459 -25.7478 1.97953 -0.292007 38.7299 0.597081 -0.579411 3.7168 -18.5835 2.03217e-16 0.0 3.88251e-19 6.2219 -39.1525 7.70522 1.70682 67.6847 -2.27268 0.938503 -21.3223 1.66542
71.3649 72.6405 -61.6873 -13.1815 60.4178 -16.4457 1.1363 23.498 3.69934 1.57717 -1.86667 1.31707 -10.3772 16.6265 -21.7843 32.2612 -28.6635 -35.7964 -0.0 0.0 0.0 -0.0 0.0 0.0 6.64229e-14 -1.56523e-13 -3.14387e-13 48.2268 -65.7487 32.0513 -5.93525 -2.01496 10.37 -1.53389 32.7956 5.19805 2.21759e-10 -3.49221e-09 -1.73172e-09 3.52972e-10 -5.80585e-09 -2.99194e-09 2.21763e-10 -3.49222e-09 -1.73172e-09 7.73091 5.47488 0.417314 2.21758e-10 -3.49221e-09 -1.73172e-09 2.90554 0.965183 0.102902 2.21769e-10 -3.49222e-09 -1.73172e-09 10.2786 0.731801 0.0259123 2.21755e-10 -3.49222e-09 -1.73172e-09 2.22167 -0.733487 -0.20892 6.63729e-14 -1.56538e-13 -3.14651e-13 -51.5232 24.3646 7.11984 25.3464 -21.8552 -54.2678 0.0187183 -3.88797 0.547278 -1.09616e-09 -3.14673e-10 2.95659e-09 -1.9052e-09 -5.39691e-10 5.10498e-09 -1.09616e-09 -3.14675e-10 2.9566e-09 -7.73091 5.47488 -0.417314 -1.09616e-09 -3.14673e-10 2.95659e-09 -2.90554 0.965183 -0.102902 -1.09617e-09 -3.14673e-10 2.9566e-09 -10.2786 0.731801 -0.0259123 -1.09616e-09 -3.14672e-10 2.9566e-09 -2.22167 -0.733487 0.20892 -2.03217e-16 0.0 -3.88251e-19 -18.4741 -26.1013 1.94005 -0.309541 39.7102 0.634953 -0.965766 2.62707 -18.4272 2.03217e-16 0.0 3.88251e-19 6.33123 -39.2497 7.35625 1.76246 68.2024 -2.34965 1.40509 -21.6307 2.63594
71.3008 72.4652 -61.179 -13.1049 59.9509 -16.445 1.10656 23.529 3.68862 1.36559 -2.1431 1.30821 -10.5099 16.8034 -21.5951 32.5524 -28.3028 -35.4332 -0.0 0.0 0.0 -0.0 0.0 0.0 -5.98976e-14 -1.04712e-13 9.5806e-14 50.7142 -66.1666 34.4546 -5.84956 -1.97708 10.2169 -1.61418 33.5257 5.34506 2.23921e-10 5.16876e-09 3.19351e-09 4.92581e-10 8.00785e-09 5.5011e-09 2.23923e-10 5.16876e-09 3.1935e-09 7.73091 5.47488 0.417314 2.23921e-10 5.16876e-09 3.1935e-09 2.90554 0.965183 0.102902 2.23932e-10 5.16876e-09 3.19351e-09 10.2786 0.731801 0.0259123 2.23917e-10 5.16877e-09 3.19351e-09 2.22167 -0.733487 -0.20892 -5.99404e-14 -1.04735e-13 9.5558e-14 -51.747 22.6669 8.39919 25.1166 -21.3426 -53.4158 0.0188399 -3.90998 0.550379 -3.04189e-09 -1.43096e-09 3.3101e-09 -5.27548e-09 -2.47326e-09 5.72031e-09 -3.04189e-09 -1.43095e-09 3.31011e-09 -7.73091 5.47488 -0.417314 -3.04189e-09 -1.43095e-09 3.3101e-09 -2.90554 0.965183 -0.102902 -3.04189e-09 -1.43096e-09 3.31011e-09 -10.2786 0.731801 -0.0259123 -3.04189e-09 -1.43096e-09 3.31011e-09 -2.22167 -0.733487 0.20892 -2.03217e-16 0.0 -3.88251e-19 -18.4105 -26.6078 1.57112 -0.335832 41.0592 0.686803 -1.43877 1.28331 -18.2532 2.03217e-16 0.0 3.88251e-19 6.36947 -39.3013 6.94042 1.81914 68.7054 -2.42964 1.93686 -21.8899 3.72513
71.3419 72.4073 -60.7205 -12.5242 59.3012 -16.2806 1.1204 23.6751 3.74687 1.15507 -2.2867 1.3237 -10.6221 16.8133 -21.4543 32.697 -28.0159 -35.1762 -0.0 0.0 0.0 -0.0 0.0 0.0 -1.43079e-13 -2.56298e-14 3.4996e-13 53.8206 -66.7865 37.5543 -5.76189 -1.93865 10.0603 -1.72341 34.5092 5.54481 2.12422e-10 1.04787e-08 6.18968e-09 5.54695e-10 1.64908e-08 1.06679e-08 2.12424e-10 1.04787e-08 6.18967e-09 7.73091 5.47488 0.417314 2.12422e-10 1.04787e-08 6.18967e-09 2.90554 0.965183 0.102902 2.12433e-10 1.04787e-08 6.18968e-09 10.2786 0.731801 0.0259123 2.12418e-10 1.04787e-08 6.18968e-09 2.22167 -0.733487 -0.20892 -1.4313e-13 -2.56568e-14 3.49712e-13 -51.9423 20.7849 9.37661 24.8411 -20.7589 -52.3919 0.0189284 -3.92467 0.552449 -4.07199e-09 -2.02703e-09 3.29046e-09 -7.05943e-09 -3.50604e-09 5.68933e-09 -4.07199e-09 -2.02703e-09 3.29047e-09 -7.73091 5.47488 -0.417314 -4.07199e-09 -2.02703e-09 3.29047e-09 -2.90554 0.965183 -0.102902 -4.07199e-09 -2.02703e-09 3.29047e-09 -10.2786 0.731801 -0.0259123 -4.07199e-09 -2.02703e-09 3.29047e-09 -2.22167 -0.733487 0.20892 -2.03217e-16 0.0 -3.88251e-19 -18.3801 -27.0268 1.1063 -0.35811 42.0604 0.723943 -1.68812 0.520498 -17.9128 2.03217e-16 0.0 3.88251e-19 6.34655 -39.1825 6.50833 1.86752 69.1171 -2.49875 2.49597 -22.0913 4.85487
